<mxfile host="app.diagrams.net" modified="2022-05-26T16:39:00.772Z" agent="5.0 (Macintosh; Intel Mac OS X 10_15_7) AppleWebKit/605.1.15 (KHTML, like Gecko) Version/14.1.1 Safari/605.1.15" etag="wQkj9qVmyedYOHmZtUI8" version="18.1.2" type="github">
  <diagram id="R2lEEEUBdFMjLlhIrx00" name="Page-1">
    <mxGraphModel dx="1186" dy="786" grid="1" gridSize="10" guides="1" tooltips="1" connect="1" arrows="1" fold="1" page="1" pageScale="1" pageWidth="850" pageHeight="1100" background="#FFFFFF" math="0" shadow="0" extFonts="Permanent Marker^https://fonts.googleapis.com/css?family=Permanent+Marker">
      <root>
        <mxCell id="0" />
        <mxCell id="1" parent="0" />
        <mxCell id="rJrsN9fCNmw6Kf7IkZ1O-1" value="&lt;font style=&quot;font-size: 20px;&quot;&gt;Chess Players&lt;/font&gt;" style="rounded=0;whiteSpace=wrap;html=1;fillColor=#f8cecc;strokeColor=#b85450;" vertex="1" parent="1">
          <mxGeometry x="100" y="140" width="230" height="70" as="geometry" />
        </mxCell>
        <mxCell id="rJrsN9fCNmw6Kf7IkZ1O-2" value="&lt;span style=&quot;font-size: 20px;&quot;&gt;Events&lt;/span&gt;" style="rounded=0;whiteSpace=wrap;html=1;fillColor=#dae8fc;strokeColor=#6c8ebf;" vertex="1" parent="1">
          <mxGeometry x="530" y="140" width="230" height="70" as="geometry" />
        </mxCell>
        <mxCell id="rJrsN9fCNmw6Kf7IkZ1O-3" value="&lt;span style=&quot;font-size: 20px;&quot;&gt;Games&lt;/span&gt;" style="rounded=0;whiteSpace=wrap;html=1;fillColor=#fff2cc;strokeColor=#d6b656;" vertex="1" parent="1">
          <mxGeometry x="320" y="420" width="230" height="70" as="geometry" />
        </mxCell>
        <mxCell id="rJrsN9fCNmw6Kf7IkZ1O-4" value="&lt;font style=&quot;font-size: 16px;&quot;&gt;&lt;font style=&quot;font-size: 16px;&quot;&gt;Name&lt;br&gt;&lt;/font&gt;&lt;/font&gt;" style="ellipse;whiteSpace=wrap;html=1;fontSize=20;fillColor=#f8cecc;strokeColor=#b85450;" vertex="1" parent="1">
          <mxGeometry x="170" y="20" width="110" height="70" as="geometry" />
        </mxCell>
        <mxCell id="rJrsN9fCNmw6Kf7IkZ1O-5" value="&lt;font style=&quot;font-size: 16px;&quot;&gt;ELO Rating&lt;br&gt;&lt;/font&gt;" style="ellipse;whiteSpace=wrap;html=1;fontSize=20;fillColor=#f8cecc;strokeColor=#b85450;" vertex="1" parent="1">
          <mxGeometry x="300" y="20" width="110" height="70" as="geometry" />
        </mxCell>
        <mxCell id="rJrsN9fCNmw6Kf7IkZ1O-6" value="&lt;font style=&quot;font-size: 16px;&quot;&gt;&lt;u&gt;&lt;font style=&quot;font-size: 16px;&quot;&gt;Name&lt;br&gt;&lt;/font&gt;&lt;/u&gt;&lt;/font&gt;" style="ellipse;whiteSpace=wrap;html=1;fontSize=20;fillColor=#dae8fc;strokeColor=#6c8ebf;" vertex="1" parent="1">
          <mxGeometry x="480" y="20" width="110" height="70" as="geometry" />
        </mxCell>
        <mxCell id="rJrsN9fCNmw6Kf7IkZ1O-7" value="&lt;font style=&quot;font-size: 16px;&quot;&gt;&lt;font style=&quot;font-size: 16px;&quot;&gt;Location&lt;br&gt;VarChar(&lt;/font&gt;)&lt;/font&gt;" style="ellipse;whiteSpace=wrap;html=1;fontSize=20;fillColor=#dae8fc;strokeColor=#6c8ebf;" vertex="1" parent="1">
          <mxGeometry x="720" y="20" width="110" height="70" as="geometry" />
        </mxCell>
        <mxCell id="rJrsN9fCNmw6Kf7IkZ1O-8" value="&lt;font style=&quot;font-size: 16px;&quot;&gt;&lt;font style=&quot;font-size: 16px;&quot;&gt;&lt;u&gt;Date&lt;/u&gt;&lt;br&gt;&lt;/font&gt;&lt;/font&gt;" style="ellipse;whiteSpace=wrap;html=1;fontSize=20;fillColor=#dae8fc;strokeColor=#6c8ebf;" vertex="1" parent="1">
          <mxGeometry x="600" y="20" width="110" height="70" as="geometry" />
        </mxCell>
        <mxCell id="rJrsN9fCNmw6Kf7IkZ1O-10" value="&lt;font style=&quot;font-size: 16px;&quot;&gt;Result&lt;br&gt;&lt;/font&gt;" style="ellipse;whiteSpace=wrap;html=1;fontSize=20;fillColor=#fff2cc;strokeColor=#d6b656;" vertex="1" parent="1">
          <mxGeometry x="380" y="550" width="110" height="70" as="geometry" />
        </mxCell>
        <mxCell id="rJrsN9fCNmw6Kf7IkZ1O-11" value="&lt;font style=&quot;font-size: 16px;&quot;&gt;List of Moves&lt;br&gt;&lt;/font&gt;" style="ellipse;whiteSpace=wrap;html=1;fontSize=20;fillColor=#fff2cc;strokeColor=#d6b656;" vertex="1" parent="1">
          <mxGeometry x="540" y="545" width="130" height="70" as="geometry" />
        </mxCell>
        <mxCell id="rJrsN9fCNmw6Kf7IkZ1O-13" value="Play" style="rhombus;whiteSpace=wrap;html=1;fontSize=16;fillColor=#ffe6cc;strokeColor=#d79b00;" vertex="1" parent="1">
          <mxGeometry x="240" y="270" width="80" height="80" as="geometry" />
        </mxCell>
        <mxCell id="rJrsN9fCNmw6Kf7IkZ1O-14" value="Host" style="rhombus;whiteSpace=wrap;html=1;fontSize=16;fillColor=#d5e8d4;strokeColor=#82b366;" vertex="1" parent="1">
          <mxGeometry x="550" y="270" width="80" height="80" as="geometry" />
        </mxCell>
        <mxCell id="rJrsN9fCNmw6Kf7IkZ1O-16" value="M" style="endArrow=none;html=1;rounded=0;fontSize=16;entryX=0.5;entryY=1;entryDx=0;entryDy=0;exitX=0;exitY=0;exitDx=0;exitDy=0;strokeWidth=5;" edge="1" parent="1" source="rJrsN9fCNmw6Kf7IkZ1O-3" target="rJrsN9fCNmw6Kf7IkZ1O-13">
          <mxGeometry width="50" height="50" relative="1" as="geometry">
            <mxPoint x="390" y="330" as="sourcePoint" />
            <mxPoint x="440" y="280" as="targetPoint" />
          </mxGeometry>
        </mxCell>
        <mxCell id="rJrsN9fCNmw6Kf7IkZ1O-17" value="M" style="endArrow=none;html=1;rounded=0;fontSize=16;entryX=0.5;entryY=0;entryDx=0;entryDy=0;exitX=1;exitY=1;exitDx=0;exitDy=0;" edge="1" parent="1" source="rJrsN9fCNmw6Kf7IkZ1O-1" target="rJrsN9fCNmw6Kf7IkZ1O-13">
          <mxGeometry width="50" height="50" relative="1" as="geometry">
            <mxPoint x="390" y="330" as="sourcePoint" />
            <mxPoint x="440" y="280" as="targetPoint" />
          </mxGeometry>
        </mxCell>
        <mxCell id="rJrsN9fCNmw6Kf7IkZ1O-20" value="M" style="endArrow=none;html=1;rounded=0;fontSize=16;entryX=0.5;entryY=1;entryDx=0;entryDy=0;exitX=1;exitY=0;exitDx=0;exitDy=0;strokeWidth=5;" edge="1" parent="1" source="rJrsN9fCNmw6Kf7IkZ1O-3" target="rJrsN9fCNmw6Kf7IkZ1O-14">
          <mxGeometry width="50" height="50" relative="1" as="geometry">
            <mxPoint x="390" y="330" as="sourcePoint" />
            <mxPoint x="440" y="280" as="targetPoint" />
          </mxGeometry>
        </mxCell>
        <mxCell id="rJrsN9fCNmw6Kf7IkZ1O-21" value="1" style="endArrow=none;html=1;rounded=0;fontSize=16;entryX=0.5;entryY=0;entryDx=0;entryDy=0;exitX=0;exitY=1;exitDx=0;exitDy=0;" edge="1" parent="1" source="rJrsN9fCNmw6Kf7IkZ1O-2" target="rJrsN9fCNmw6Kf7IkZ1O-14">
          <mxGeometry width="50" height="50" relative="1" as="geometry">
            <mxPoint x="390" y="330" as="sourcePoint" />
            <mxPoint x="440" y="280" as="targetPoint" />
          </mxGeometry>
        </mxCell>
        <mxCell id="rJrsN9fCNmw6Kf7IkZ1O-26" value="&lt;u&gt;Player ID&amp;nbsp;&lt;br&gt;&lt;/u&gt;" style="ellipse;whiteSpace=wrap;html=1;fontSize=16;fillColor=#f8cecc;strokeColor=#b85450;" vertex="1" parent="1">
          <mxGeometry x="40" y="20" width="110" height="70" as="geometry" />
        </mxCell>
        <mxCell id="rJrsN9fCNmw6Kf7IkZ1O-31" value="&lt;u&gt;GameID&lt;/u&gt;" style="ellipse;whiteSpace=wrap;html=1;fontSize=16;fillColor=#fff2cc;strokeColor=#d6b656;" vertex="1" parent="1">
          <mxGeometry x="200" y="545" width="120" height="80" as="geometry" />
        </mxCell>
        <mxCell id="rJrsN9fCNmw6Kf7IkZ1O-33" value="" style="endArrow=none;html=1;rounded=0;fontSize=16;strokeWidth=1;entryX=0.5;entryY=1;entryDx=0;entryDy=0;exitX=0.173;exitY=-0.024;exitDx=0;exitDy=0;exitPerimeter=0;" edge="1" parent="1" source="rJrsN9fCNmw6Kf7IkZ1O-1" target="rJrsN9fCNmw6Kf7IkZ1O-26">
          <mxGeometry width="50" height="50" relative="1" as="geometry">
            <mxPoint x="390" y="360" as="sourcePoint" />
            <mxPoint x="440" y="310" as="targetPoint" />
          </mxGeometry>
        </mxCell>
        <mxCell id="rJrsN9fCNmw6Kf7IkZ1O-34" value="" style="endArrow=none;html=1;rounded=0;fontSize=16;strokeWidth=1;entryX=0.5;entryY=1;entryDx=0;entryDy=0;exitX=0.545;exitY=-0.004;exitDx=0;exitDy=0;exitPerimeter=0;" edge="1" parent="1" source="rJrsN9fCNmw6Kf7IkZ1O-1" target="rJrsN9fCNmw6Kf7IkZ1O-4">
          <mxGeometry width="50" height="50" relative="1" as="geometry">
            <mxPoint x="109.78999999999996" y="128.31999999999994" as="sourcePoint" />
            <mxPoint x="75" y="100" as="targetPoint" />
          </mxGeometry>
        </mxCell>
        <mxCell id="rJrsN9fCNmw6Kf7IkZ1O-35" value="" style="endArrow=none;html=1;rounded=0;fontSize=16;strokeWidth=1;entryX=0.5;entryY=1;entryDx=0;entryDy=0;" edge="1" parent="1" source="rJrsN9fCNmw6Kf7IkZ1O-1" target="rJrsN9fCNmw6Kf7IkZ1O-5">
          <mxGeometry width="50" height="50" relative="1" as="geometry">
            <mxPoint x="195.3499999999999" y="129.7199999999999" as="sourcePoint" />
            <mxPoint x="195" y="100" as="targetPoint" />
          </mxGeometry>
        </mxCell>
        <mxCell id="rJrsN9fCNmw6Kf7IkZ1O-36" value="" style="endArrow=none;html=1;rounded=0;fontSize=16;strokeWidth=1;" edge="1" parent="1" source="rJrsN9fCNmw6Kf7IkZ1O-2">
          <mxGeometry width="50" height="50" relative="1" as="geometry">
            <mxPoint x="257.6923076923076" y="130" as="sourcePoint" />
            <mxPoint x="520" y="90" as="targetPoint" />
            <Array as="points">
              <mxPoint x="520" y="90" />
            </Array>
          </mxGeometry>
        </mxCell>
        <mxCell id="rJrsN9fCNmw6Kf7IkZ1O-42" value="" style="endArrow=none;html=1;rounded=0;fontSize=16;strokeWidth=1;entryX=0.5;entryY=1;entryDx=0;entryDy=0;exitX=1;exitY=0;exitDx=0;exitDy=0;" edge="1" parent="1" source="rJrsN9fCNmw6Kf7IkZ1O-2" target="rJrsN9fCNmw6Kf7IkZ1O-7">
          <mxGeometry width="50" height="50" relative="1" as="geometry">
            <mxPoint x="390" y="360" as="sourcePoint" />
            <mxPoint x="440" y="310" as="targetPoint" />
          </mxGeometry>
        </mxCell>
        <mxCell id="rJrsN9fCNmw6Kf7IkZ1O-43" value="" style="endArrow=none;html=1;rounded=0;fontSize=16;strokeWidth=1;exitX=0.5;exitY=0;exitDx=0;exitDy=0;entryX=0;entryY=1;entryDx=0;entryDy=0;" edge="1" parent="1" source="rJrsN9fCNmw6Kf7IkZ1O-31" target="rJrsN9fCNmw6Kf7IkZ1O-3">
          <mxGeometry width="50" height="50" relative="1" as="geometry">
            <mxPoint x="390" y="360" as="sourcePoint" />
            <mxPoint x="440" y="310" as="targetPoint" />
          </mxGeometry>
        </mxCell>
        <mxCell id="rJrsN9fCNmw6Kf7IkZ1O-46" value="" style="endArrow=none;html=1;rounded=0;fontSize=16;strokeWidth=1;exitX=0.5;exitY=0;exitDx=0;exitDy=0;entryX=0.5;entryY=1;entryDx=0;entryDy=0;" edge="1" parent="1" source="rJrsN9fCNmw6Kf7IkZ1O-10" target="rJrsN9fCNmw6Kf7IkZ1O-3">
          <mxGeometry width="50" height="50" relative="1" as="geometry">
            <mxPoint x="390" y="360" as="sourcePoint" />
            <mxPoint x="440" y="310" as="targetPoint" />
          </mxGeometry>
        </mxCell>
        <mxCell id="rJrsN9fCNmw6Kf7IkZ1O-49" value="" style="endArrow=none;html=1;rounded=0;fontSize=16;strokeWidth=1;entryX=0.5;entryY=0;entryDx=0;entryDy=0;exitX=1;exitY=1;exitDx=0;exitDy=0;" edge="1" parent="1" source="rJrsN9fCNmw6Kf7IkZ1O-3" target="rJrsN9fCNmw6Kf7IkZ1O-11">
          <mxGeometry width="50" height="50" relative="1" as="geometry">
            <mxPoint x="390" y="360" as="sourcePoint" />
            <mxPoint x="440" y="310" as="targetPoint" />
          </mxGeometry>
        </mxCell>
        <mxCell id="rJrsN9fCNmw6Kf7IkZ1O-53" value="" style="endArrow=none;html=1;rounded=0;fontSize=16;strokeWidth=1;exitX=0.5;exitY=1;exitDx=0;exitDy=0;" edge="1" parent="1" source="rJrsN9fCNmw6Kf7IkZ1O-8">
          <mxGeometry width="50" height="50" relative="1" as="geometry">
            <mxPoint x="390" y="360" as="sourcePoint" />
            <mxPoint x="655" y="140" as="targetPoint" />
          </mxGeometry>
        </mxCell>
        <mxCell id="rJrsN9fCNmw6Kf7IkZ1O-54" value="Time" style="ellipse;whiteSpace=wrap;html=1;fontSize=16;fillColor=#d5e8d4;strokeColor=#82b366;" vertex="1" parent="1">
          <mxGeometry x="660" y="250" width="100" height="60" as="geometry" />
        </mxCell>
        <mxCell id="rJrsN9fCNmw6Kf7IkZ1O-55" value="Room #" style="ellipse;whiteSpace=wrap;html=1;fontSize=16;fillColor=#d5e8d4;strokeColor=#82b366;" vertex="1" parent="1">
          <mxGeometry x="660" y="320" width="100" height="60" as="geometry" />
        </mxCell>
        <mxCell id="rJrsN9fCNmw6Kf7IkZ1O-56" value="" style="endArrow=none;html=1;rounded=0;fontSize=16;strokeWidth=1;entryX=0;entryY=0.5;entryDx=0;entryDy=0;exitX=1;exitY=0.5;exitDx=0;exitDy=0;" edge="1" parent="1" source="rJrsN9fCNmw6Kf7IkZ1O-14" target="rJrsN9fCNmw6Kf7IkZ1O-54">
          <mxGeometry width="50" height="50" relative="1" as="geometry">
            <mxPoint x="390" y="360" as="sourcePoint" />
            <mxPoint x="440" y="310" as="targetPoint" />
          </mxGeometry>
        </mxCell>
        <mxCell id="rJrsN9fCNmw6Kf7IkZ1O-57" value="" style="endArrow=none;html=1;rounded=0;fontSize=16;strokeWidth=1;entryX=0.054;entryY=0.329;entryDx=0;entryDy=0;entryPerimeter=0;exitX=1;exitY=0.5;exitDx=0;exitDy=0;" edge="1" parent="1" source="rJrsN9fCNmw6Kf7IkZ1O-14" target="rJrsN9fCNmw6Kf7IkZ1O-55">
          <mxGeometry width="50" height="50" relative="1" as="geometry">
            <mxPoint x="390" y="360" as="sourcePoint" />
            <mxPoint x="440" y="310" as="targetPoint" />
          </mxGeometry>
        </mxCell>
        <mxCell id="rJrsN9fCNmw6Kf7IkZ1O-59" value="White or Black" style="ellipse;whiteSpace=wrap;html=1;fontSize=16;fillColor=#ffe6cc;strokeColor=#d79b00;" vertex="1" parent="1">
          <mxGeometry x="90" y="280" width="100" height="60" as="geometry" />
        </mxCell>
        <mxCell id="rJrsN9fCNmw6Kf7IkZ1O-60" value="" style="endArrow=none;html=1;rounded=0;fontSize=16;strokeWidth=1;entryX=1;entryY=0.5;entryDx=0;entryDy=0;exitX=0;exitY=0.5;exitDx=0;exitDy=0;" edge="1" parent="1" source="rJrsN9fCNmw6Kf7IkZ1O-13" target="rJrsN9fCNmw6Kf7IkZ1O-59">
          <mxGeometry width="50" height="50" relative="1" as="geometry">
            <mxPoint x="390" y="360" as="sourcePoint" />
            <mxPoint x="440" y="310" as="targetPoint" />
          </mxGeometry>
        </mxCell>
      </root>
    </mxGraphModel>
  </diagram>
</mxfile>
